M48
METRIC,LZ,000.000
;FILE_FORMAT=3:3
;TYPE=PLATED
;Layer: PTH_Through
;EasyEDA v6.5.15, 2022-10-10 10:29:27
;028e3914a6f949ed9ca799ef75e4ed4f,10
;Gerber Generator version 0.2
;Holesize 1 = 0.320 mm
T01C0.320
;Holesize 2 = 0.712 mm
T02C0.712
;Holesize 3 = 0.762 mm
T03C0.762
;Holesize 4 = 0.800 mm
T04C0.800
;Holesize 5 = 0.901 mm
T05C0.901
;Holesize 6 = 0.915 mm
T06C0.915
;Holesize 7 = 0.966 mm
T07C0.966
;Holesize 8 = 1.000 mm
T08C1.000
;Holesize 9 = 1.101 mm
T09C1.101
;Holesize 10 = 1.200 mm
T10C1.200
;Holesize 11 = 2.500 mm
T11C2.500
%
G05
G90
T01
X080772Y065024
T02
X032004Y052324
X032004Y054864
T03
X083820Y077216
X083820Y080518
T04
X015113Y045339
X015113Y042799
X015113Y036830
X025273Y036830
T05
X034619Y030734G85X034619Y030734
X028119Y030734G85X028119Y030734
T06
X081079Y054941
X081079Y052401
X081079Y049991
X081079Y047451
X081079Y044911
X081079Y042371
X081079Y039831
X076040Y080391
X068740Y080391
T07
X066167Y057531
X068707Y057531
T08
X027686Y065024
X027686Y062484
X058928Y049784
X058928Y052324
X058928Y054864
X058928Y057404
X058928Y059944
X058928Y062484
X058928Y065024
X058928Y067564
X058928Y070104
X058928Y072644
X055118Y042926
X042418Y042926
X044958Y042926
X047498Y042926
X050038Y042926
X052578Y042926
X038608Y049784G85X038608Y049784
X038608Y072644
X038608Y070104
X038608Y067564
X038608Y065024
X038608Y062484
X038608Y059944
X038608Y057404
X038608Y054864
X038608Y052324
X038608Y049784
T09
X042418Y033782
X044958Y033782
X047498Y033782
X050038Y033782
X052578Y033782
X055118Y033782
T10
X023355Y080899G85X023349Y080899
X019854Y080899G85X019849Y080899
X015240Y056896
X015240Y059436
X015240Y054356
X010160Y059436
X010160Y054356
T11
X058928Y076454
X058928Y043434
X038608Y043434
X038608Y076454
M30
