G04 Layer: BottomLayer*
G04 EasyEDA v6.5.15, 2022-10-10 10:29:27*
G04 Gerber Generator version 0.2*
G04 Scale: 100 percent, Rotated: No, Reflected: No *
G04 Dimensions in millimeters *
G04 leading zeros omitted , absolute positions ,4 integer and 5 decimal *
%FSLAX45Y45*%
%MOMM*%

%ADD10C,1.2190*%
%ADD11C,0.6190*%
%ADD12C,0.6910*%
%ADD13C,1.6510*%
%ADD14C,1.7780*%
%ADD15C,1.1938*%
%ADD16R,2.3000X1.6500*%
%ADD17O,2.2999954X1.6500094*%
%ADD18C,1.8000*%
%ADD19R,1.8000X1.8000*%
%ADD20O,1.7999964X2.999994*%
%ADD21R,1.8000X3.0000*%
%ADD22R,2.0320X2.0320*%
%ADD23C,2.0320*%
%ADD24C,2.0000*%
%ADD25C,3.5052*%
%ADD26C,1.5240*%
%ADD27R,1.3970X1.3970*%
%ADD28C,1.3970*%
%ADD29C,0.6190*%

%LPD*%
D10*
X2811906Y3073400D02*
G01*
X2527300Y3073400D01*
X2527300Y3683000D01*
D11*
X5892800Y5740400D02*
G01*
X6604005Y5740400D01*
X6616710Y5753105D01*
D10*
X2768600Y6248400D02*
G01*
X2374900Y6248400D01*
X2335199Y6288100D01*
X2335199Y8089900D01*
D11*
X5892800Y6502400D02*
G01*
X8077200Y6502400D01*
X5892800Y6756400D02*
G01*
X8394700Y6756400D01*
X8394700Y4737100D01*
X8115909Y4737100D01*
X8107908Y4745101D01*
X5892800Y5486400D02*
G01*
X8100212Y5486400D01*
X8107908Y5494096D01*
X5892800Y4978400D02*
G01*
X8087207Y4978400D01*
X8107908Y4999101D01*
X5257800Y4292600D02*
G01*
X5257800Y3378200D01*
X5003800Y4292600D02*
G01*
X5003800Y3378200D01*
X4749800Y4292600D02*
G01*
X4749800Y3378200D01*
X4495800Y4292600D02*
G01*
X4495800Y3378200D01*
X4241800Y4292600D02*
G01*
X4241800Y3378200D01*
X1524000Y5689600D02*
G01*
X2032000Y5689600D01*
X2032000Y8043087D01*
X1985187Y8089900D01*
X1511300Y4279900D02*
G01*
X1511300Y3683000D01*
X1524000Y5435600D02*
G01*
X1524000Y4546600D01*
X1511300Y4533900D01*
D10*
X5511800Y4292600D02*
G01*
X5511800Y3378200D01*
X2768600Y6248400D02*
G01*
X2768600Y5232400D01*
X3200400Y5232400D01*
X3200400Y5232400D02*
G01*
X3200400Y3683000D01*
X2527300Y3683000D01*
X3200400Y5232400D02*
G01*
X3479800Y5232400D01*
X3479800Y4978400D01*
X3860800Y4978400D01*
D12*
X3200400Y5486400D02*
G01*
X3860800Y5486400D01*
X2768600Y6502400D02*
G01*
X3860800Y6502400D01*
D11*
X3860800Y5994400D02*
G01*
X4521200Y5994400D01*
X4521200Y8356600D01*
X7594600Y8356600D01*
X7594600Y8048500D01*
X7604000Y8039100D01*
X7604000Y8039100D02*
G01*
X8369300Y8039100D01*
X8382000Y8051800D01*
D13*
G01*
X6616700Y5753100D03*
G01*
X6870700Y5753100D03*
D14*
G01*
X3461893Y3073400D03*
G01*
X2811906Y3073400D03*
D15*
G01*
X3200400Y5232400D03*
G01*
X3200400Y5486400D03*
D16*
G01*
X2768600Y6502400D03*
D17*
G01*
X2768600Y6248400D03*
D18*
G01*
X1511300Y4533900D03*
D19*
G01*
X1511300Y4279900D03*
D20*
G01*
X4241800Y3378200D03*
G01*
X4495800Y3378200D03*
G01*
X4749800Y3378200D03*
G01*
X5003800Y3378200D03*
G01*
X5257800Y3378200D03*
D21*
G01*
X5511800Y3378200D03*
D22*
G01*
X2335199Y8089900D03*
D23*
G01*
X1985187Y8089900D03*
D24*
G01*
X1511300Y3683000D03*
G01*
X2527300Y3683000D03*
G01*
X1524000Y5689600D03*
G01*
X1524000Y5943600D03*
G01*
X1524000Y5435600D03*
G01*
X1016000Y5943600D03*
G01*
X1016000Y5435600D03*
D25*
G01*
X5892800Y7645400D03*
D14*
G01*
X5892800Y4978400D03*
G01*
X5892800Y5232400D03*
G01*
X5892800Y5486400D03*
G01*
X5892800Y5740400D03*
G01*
X5892800Y5994400D03*
G01*
X5892800Y6248400D03*
G01*
X5892800Y6502400D03*
G01*
X5892800Y6756400D03*
G01*
X5892800Y7010400D03*
G01*
X5892800Y7264400D03*
D25*
G01*
X5892800Y4343400D03*
D14*
G01*
X5511800Y4292600D03*
G01*
X4241800Y4292600D03*
G01*
X4495800Y4292600D03*
G01*
X4749800Y4292600D03*
G01*
X5003800Y4292600D03*
G01*
X5257800Y4292600D03*
D25*
G01*
X3860800Y4343400D03*
D14*
G01*
X3860800Y4978400D03*
G01*
X3860800Y7264400D03*
G01*
X3860800Y7010400D03*
G01*
X3860800Y6756400D03*
G01*
X3860800Y6502400D03*
G01*
X3860800Y6248400D03*
G01*
X3860800Y5994400D03*
G01*
X3860800Y5740400D03*
G01*
X3860800Y5486400D03*
G01*
X3860800Y5232400D03*
G01*
X3860800Y4978400D03*
D25*
G01*
X3860800Y7645400D03*
D26*
G01*
X8107908Y5494096D03*
G01*
X8107908Y5240096D03*
G01*
X8107908Y4999101D03*
G01*
X8107908Y4745101D03*
G01*
X8107908Y4491101D03*
G01*
X8107908Y4237101D03*
G01*
X8107908Y3983101D03*
D27*
G01*
X8382000Y7721600D03*
D28*
G01*
X8382000Y8051800D03*
D26*
G01*
X7603997Y8039100D03*
G01*
X6874002Y8039100D03*
D29*
G01*
X8077200Y6502400D03*
M02*
