G04 Layer: TopSilkscreenLayer*
G04 EasyEDA v6.5.15, 2022-10-10 10:29:27*
G04 Gerber Generator version 0.2*
G04 Scale: 100 percent, Rotated: No, Reflected: No *
G04 Dimensions in millimeters *
G04 leading zeros omitted , absolute positions ,4 integer and 5 decimal *
%FSLAX45Y45*%
%MOMM*%

%ADD10C,0.1524*%
%ADD11C,0.2032*%
%ADD12C,0.1501*%
%ADD13C,0.2540*%
%ADD14C,0.2007*%
%ADD15C,0.2030*%
%ADD16C,0.0126*%

%LPD*%
D10*
X6254241Y3823715D02*
G01*
X6243827Y3818636D01*
X6233413Y3808221D01*
X6228079Y3797807D01*
X6223000Y3782060D01*
X6223000Y3756152D01*
X6228079Y3740657D01*
X6233413Y3730244D01*
X6243827Y3719829D01*
X6254241Y3714750D01*
X6275070Y3714750D01*
X6285229Y3719829D01*
X6295643Y3730244D01*
X6300977Y3740657D01*
X6306058Y3756152D01*
X6306058Y3782060D01*
X6300977Y3797807D01*
X6295643Y3808221D01*
X6285229Y3818636D01*
X6275070Y3823715D01*
X6254241Y3823715D01*
X6340347Y3823715D02*
G01*
X6340347Y3714750D01*
X6340347Y3823715D02*
G01*
X6387084Y3823715D01*
X6402831Y3818636D01*
X6407911Y3813302D01*
X6413245Y3802887D01*
X6413245Y3787394D01*
X6407911Y3776979D01*
X6402831Y3771900D01*
X6387084Y3766565D01*
X6340347Y3766565D01*
X6447536Y3823715D02*
G01*
X6447536Y3714750D01*
X6447536Y3823715D02*
G01*
X6515100Y3823715D01*
X6447536Y3771900D02*
G01*
X6488938Y3771900D01*
X6447536Y3714750D02*
G01*
X6515100Y3714750D01*
X6549390Y3823715D02*
G01*
X6549390Y3714750D01*
X6549390Y3823715D02*
G01*
X6622034Y3714750D01*
X6622034Y3823715D02*
G01*
X6622034Y3714750D01*
X6656324Y3761486D02*
G01*
X6749795Y3761486D01*
X6784086Y3823715D02*
G01*
X6784086Y3714750D01*
X6856729Y3823715D02*
G01*
X6856729Y3714750D01*
X6784086Y3771900D02*
G01*
X6856729Y3771900D01*
X6932675Y3823715D02*
G01*
X6891020Y3714750D01*
X6932675Y3823715D02*
G01*
X6974331Y3714750D01*
X6906768Y3751071D02*
G01*
X6958584Y3751071D01*
X7008622Y3823715D02*
G01*
X7008622Y3714750D01*
X7008622Y3823715D02*
G01*
X7055358Y3823715D01*
X7070852Y3818636D01*
X7076186Y3813302D01*
X7081265Y3802887D01*
X7081265Y3792473D01*
X7076186Y3782060D01*
X7070852Y3776979D01*
X7055358Y3771900D01*
X7008622Y3771900D01*
X7044943Y3771900D02*
G01*
X7081265Y3714750D01*
X7115556Y3823715D02*
G01*
X7115556Y3714750D01*
X7115556Y3823715D02*
G01*
X7151877Y3823715D01*
X7167625Y3818636D01*
X7178040Y3808221D01*
X7183120Y3797807D01*
X7188200Y3782060D01*
X7188200Y3756152D01*
X7183120Y3740657D01*
X7178040Y3730244D01*
X7167625Y3719829D01*
X7151877Y3714750D01*
X7115556Y3714750D01*
X7222490Y3823715D02*
G01*
X7248652Y3714750D01*
X7274559Y3823715D02*
G01*
X7248652Y3714750D01*
X7274559Y3823715D02*
G01*
X7300468Y3714750D01*
X7326629Y3823715D02*
G01*
X7300468Y3714750D01*
X7402322Y3823715D02*
G01*
X7360920Y3714750D01*
X7402322Y3823715D02*
G01*
X7443977Y3714750D01*
X7376413Y3751071D02*
G01*
X7428229Y3751071D01*
X7478268Y3823715D02*
G01*
X7478268Y3714750D01*
X7478268Y3823715D02*
G01*
X7525004Y3823715D01*
X7540497Y3818636D01*
X7545831Y3813302D01*
X7550911Y3802887D01*
X7550911Y3792473D01*
X7545831Y3782060D01*
X7540497Y3776979D01*
X7525004Y3771900D01*
X7478268Y3771900D01*
X7514590Y3771900D02*
G01*
X7550911Y3714750D01*
X7585202Y3823715D02*
G01*
X7585202Y3714750D01*
X7585202Y3823715D02*
G01*
X7652765Y3823715D01*
X7585202Y3771900D02*
G01*
X7626858Y3771900D01*
X7585202Y3714750D02*
G01*
X7652765Y3714750D01*
X4559300Y3874515D02*
G01*
X4559300Y3765550D01*
X4559300Y3874515D02*
G01*
X4606036Y3874515D01*
X4621529Y3869436D01*
X4626863Y3864102D01*
X4631943Y3853687D01*
X4631943Y3843273D01*
X4626863Y3832860D01*
X4621529Y3827779D01*
X4606036Y3822700D01*
X4559300Y3822700D01*
X4595622Y3822700D02*
G01*
X4631943Y3765550D01*
X4739131Y3859021D02*
G01*
X4728718Y3869436D01*
X4712970Y3874515D01*
X4692395Y3874515D01*
X4676647Y3869436D01*
X4666234Y3859021D01*
X4666234Y3848607D01*
X4671568Y3838194D01*
X4676647Y3832860D01*
X4687061Y3827779D01*
X4718304Y3817365D01*
X4728718Y3812286D01*
X4733797Y3806952D01*
X4739131Y3796537D01*
X4739131Y3781044D01*
X4728718Y3770629D01*
X4712970Y3765550D01*
X4692395Y3765550D01*
X4676647Y3770629D01*
X4666234Y3781044D01*
X4773422Y3812286D02*
G01*
X4866893Y3812286D01*
X4906263Y3848607D02*
G01*
X4906263Y3853687D01*
X4911597Y3864102D01*
X4916677Y3869436D01*
X4927091Y3874515D01*
X4947920Y3874515D01*
X4958334Y3869436D01*
X4963413Y3864102D01*
X4968747Y3853687D01*
X4968747Y3843273D01*
X4963413Y3832860D01*
X4953000Y3817365D01*
X4901184Y3765550D01*
X4973827Y3765550D01*
X5018531Y3874515D02*
G01*
X5075681Y3874515D01*
X5044440Y3832860D01*
X5060188Y3832860D01*
X5070602Y3827779D01*
X5075681Y3822700D01*
X5081015Y3806952D01*
X5081015Y3796537D01*
X5075681Y3781044D01*
X5065268Y3770629D01*
X5049774Y3765550D01*
X5034279Y3765550D01*
X5018531Y3770629D01*
X5013452Y3775710D01*
X5008118Y3786123D01*
X5120386Y3848607D02*
G01*
X5120386Y3853687D01*
X5125720Y3864102D01*
X5130800Y3869436D01*
X5141213Y3874515D01*
X5162041Y3874515D01*
X5172456Y3869436D01*
X5177536Y3864102D01*
X5182870Y3853687D01*
X5182870Y3843273D01*
X5177536Y3832860D01*
X5167122Y3817365D01*
X5115306Y3765550D01*
X5187950Y3765550D01*
D11*
X8995409Y5765800D02*
G01*
X8823706Y5765800D01*
X8995409Y5765800D02*
G01*
X8995409Y5692139D01*
X8987281Y5667502D01*
X8979154Y5659373D01*
X8962643Y5651245D01*
X8946388Y5651245D01*
X8929877Y5659373D01*
X8921750Y5667502D01*
X8913622Y5692139D01*
X8913622Y5765800D02*
G01*
X8913622Y5692139D01*
X8905493Y5667502D01*
X8897365Y5659373D01*
X8880856Y5651245D01*
X8856472Y5651245D01*
X8839961Y5659373D01*
X8831834Y5667502D01*
X8823706Y5692139D01*
X8823706Y5765800D01*
X8995409Y5597144D02*
G01*
X8823706Y5597144D01*
X8995409Y5597144D02*
G01*
X8823706Y5531865D01*
X8995409Y5466334D02*
G01*
X8823706Y5531865D01*
X8995409Y5466334D02*
G01*
X8823706Y5466334D01*
X8995409Y5412231D02*
G01*
X8823706Y5412231D01*
X8995409Y5412231D02*
G01*
X8995409Y5306060D01*
X8913622Y5412231D02*
G01*
X8913622Y5346954D01*
X8823706Y5412231D02*
G01*
X8823706Y5306060D01*
X8970772Y5153913D02*
G01*
X8987281Y5162042D01*
X8995409Y5186426D01*
X8995409Y5202936D01*
X8987281Y5227320D01*
X8962643Y5243829D01*
X8921750Y5251957D01*
X8880856Y5251957D01*
X8848090Y5243829D01*
X8831834Y5227320D01*
X8823706Y5202936D01*
X8823706Y5194807D01*
X8831834Y5170170D01*
X8848090Y5153913D01*
X8872727Y5145531D01*
X8880856Y5145531D01*
X8905493Y5153913D01*
X8921750Y5170170D01*
X8929877Y5194807D01*
X8929877Y5202936D01*
X8921750Y5227320D01*
X8905493Y5243829D01*
X8880856Y5251957D01*
X8995409Y5050789D02*
G01*
X8987281Y5075173D01*
X8970772Y5083555D01*
X8954515Y5083555D01*
X8938259Y5075173D01*
X8929877Y5058918D01*
X8921750Y5026152D01*
X8913622Y5001513D01*
X8897365Y4985257D01*
X8880856Y4977129D01*
X8856472Y4977129D01*
X8839961Y4985257D01*
X8831834Y4993386D01*
X8823706Y5018023D01*
X8823706Y5050789D01*
X8831834Y5075173D01*
X8839961Y5083555D01*
X8856472Y5091684D01*
X8880856Y5091684D01*
X8897365Y5083555D01*
X8913622Y5067045D01*
X8921750Y5042407D01*
X8929877Y5009895D01*
X8938259Y4993386D01*
X8954515Y4985257D01*
X8970772Y4985257D01*
X8987281Y4993386D01*
X8995409Y5018023D01*
X8995409Y5050789D01*
X8995409Y4882134D02*
G01*
X8987281Y4906771D01*
X8970772Y4914900D01*
X8954515Y4914900D01*
X8938259Y4906771D01*
X8929877Y4890262D01*
X8921750Y4857495D01*
X8913622Y4833112D01*
X8897365Y4816602D01*
X8880856Y4808473D01*
X8856472Y4808473D01*
X8839961Y4816602D01*
X8831834Y4824984D01*
X8823706Y4849368D01*
X8823706Y4882134D01*
X8831834Y4906771D01*
X8839961Y4914900D01*
X8856472Y4923028D01*
X8880856Y4923028D01*
X8897365Y4914900D01*
X8913622Y4898644D01*
X8921750Y4874005D01*
X8929877Y4841239D01*
X8938259Y4824984D01*
X8954515Y4816602D01*
X8970772Y4816602D01*
X8987281Y4824984D01*
X8995409Y4849368D01*
X8995409Y4882134D01*
X9028175Y4607305D02*
G01*
X8766302Y4754626D01*
X8995409Y4553204D02*
G01*
X8823706Y4553204D01*
X8995409Y4553204D02*
G01*
X8995409Y4479544D01*
X8987281Y4455160D01*
X8979154Y4446778D01*
X8962643Y4438650D01*
X8946388Y4438650D01*
X8929877Y4446778D01*
X8921750Y4455160D01*
X8913622Y4479544D01*
X8913622Y4553204D02*
G01*
X8913622Y4479544D01*
X8905493Y4455160D01*
X8897365Y4446778D01*
X8880856Y4438650D01*
X8856472Y4438650D01*
X8839961Y4446778D01*
X8831834Y4455160D01*
X8823706Y4479544D01*
X8823706Y4553204D01*
X8995409Y4384802D02*
G01*
X8823706Y4384802D01*
X8995409Y4384802D02*
G01*
X8823706Y4319270D01*
X8995409Y4253737D02*
G01*
X8823706Y4319270D01*
X8995409Y4253737D02*
G01*
X8823706Y4253737D01*
X8995409Y4199889D02*
G01*
X8823706Y4199889D01*
X8995409Y4199889D02*
G01*
X8995409Y4093463D01*
X8913622Y4199889D02*
G01*
X8913622Y4134357D01*
X8823706Y4199889D02*
G01*
X8823706Y4093463D01*
X8970772Y3941318D02*
G01*
X8987281Y3949445D01*
X8995409Y3974084D01*
X8995409Y3990339D01*
X8987281Y4014978D01*
X8962643Y4031234D01*
X8921750Y4039362D01*
X8880856Y4039362D01*
X8848090Y4031234D01*
X8831834Y4014978D01*
X8823706Y3990339D01*
X8823706Y3982212D01*
X8831834Y3957573D01*
X8848090Y3941318D01*
X8872727Y3933189D01*
X8880856Y3933189D01*
X8905493Y3941318D01*
X8921750Y3957573D01*
X8929877Y3982212D01*
X8929877Y3990339D01*
X8921750Y4014978D01*
X8905493Y4031234D01*
X8880856Y4039362D01*
X8995409Y3838194D02*
G01*
X8987281Y3862831D01*
X8970772Y3870960D01*
X8954515Y3870960D01*
X8938259Y3862831D01*
X8929877Y3846321D01*
X8921750Y3813555D01*
X8913622Y3789171D01*
X8897365Y3772662D01*
X8880856Y3764534D01*
X8856472Y3764534D01*
X8839961Y3772662D01*
X8831834Y3780789D01*
X8823706Y3805428D01*
X8823706Y3838194D01*
X8831834Y3862831D01*
X8839961Y3870960D01*
X8856472Y3879087D01*
X8880856Y3879087D01*
X8897365Y3870960D01*
X8913622Y3854450D01*
X8921750Y3830065D01*
X8929877Y3797300D01*
X8938259Y3780789D01*
X8954515Y3772662D01*
X8970772Y3772662D01*
X8987281Y3780789D01*
X8995409Y3805428D01*
X8995409Y3838194D01*
X8995409Y3661410D02*
G01*
X8987281Y3686047D01*
X8962643Y3702304D01*
X8921750Y3710431D01*
X8897365Y3710431D01*
X8856472Y3702304D01*
X8831834Y3686047D01*
X8823706Y3661410D01*
X8823706Y3645154D01*
X8831834Y3620515D01*
X8856472Y3604260D01*
X8897365Y3595878D01*
X8921750Y3595878D01*
X8962643Y3604260D01*
X8987281Y3620515D01*
X8995409Y3645154D01*
X8995409Y3661410D01*
X1308100Y4964684D02*
G01*
X1308100Y4821428D01*
X1308100Y4964684D02*
G01*
X1369568Y4964684D01*
X1389887Y4957826D01*
X1396745Y4950968D01*
X1403604Y4937505D01*
X1403604Y4916931D01*
X1396745Y4903215D01*
X1389887Y4896357D01*
X1369568Y4889754D01*
X1308100Y4889754D01*
X1448562Y4964684D02*
G01*
X1482597Y4821428D01*
X1516634Y4964684D02*
G01*
X1482597Y4821428D01*
X1516634Y4964684D02*
G01*
X1550923Y4821428D01*
X1584960Y4964684D02*
G01*
X1550923Y4821428D01*
X1629918Y4964684D02*
G01*
X1629918Y4821428D01*
X1629918Y4964684D02*
G01*
X1691386Y4964684D01*
X1711705Y4957826D01*
X1718563Y4950968D01*
X1725421Y4937505D01*
X1725421Y4923789D01*
X1718563Y4910073D01*
X1711705Y4903215D01*
X1691386Y4896357D01*
X1629918Y4896357D01*
X1677670Y4896357D02*
G01*
X1725421Y4821428D01*
X2645409Y6869684D02*
G01*
X2590800Y6726428D01*
X2645409Y6869684D02*
G01*
X2699765Y6726428D01*
X2611374Y6774179D02*
G01*
X2679445Y6774179D01*
X2847086Y6835647D02*
G01*
X2840227Y6849110D01*
X2826765Y6862826D01*
X2813050Y6869684D01*
X2785872Y6869684D01*
X2772156Y6862826D01*
X2758440Y6849110D01*
X2751581Y6835647D01*
X2744977Y6815073D01*
X2744977Y6781037D01*
X2751581Y6760463D01*
X2758440Y6747002D01*
X2772156Y6733286D01*
X2785872Y6726428D01*
X2813050Y6726428D01*
X2826765Y6733286D01*
X2840227Y6747002D01*
X2847086Y6760463D01*
X2939795Y6869684D02*
G01*
X2939795Y6726428D01*
X2892043Y6869684D02*
G01*
X2987547Y6869684D01*
X917194Y6374384D02*
G01*
X903478Y6367526D01*
X890015Y6353810D01*
X883157Y6340347D01*
X876300Y6319773D01*
X876300Y6285737D01*
X883157Y6265163D01*
X890015Y6251702D01*
X903478Y6237986D01*
X917194Y6231128D01*
X944371Y6231128D01*
X958087Y6237986D01*
X971804Y6251702D01*
X978662Y6265163D01*
X985265Y6285737D01*
X985265Y6319773D01*
X978662Y6340347D01*
X971804Y6353810D01*
X958087Y6367526D01*
X944371Y6374384D01*
X917194Y6374384D01*
X1030478Y6374384D02*
G01*
X1030478Y6231128D01*
X1030478Y6374384D02*
G01*
X1125728Y6231128D01*
X1125728Y6374384D02*
G01*
X1125728Y6231128D01*
X1293621Y6401562D02*
G01*
X1170939Y6183376D01*
X1379473Y6374384D02*
G01*
X1365757Y6367526D01*
X1352295Y6353810D01*
X1345437Y6340347D01*
X1338579Y6319773D01*
X1338579Y6285737D01*
X1345437Y6265163D01*
X1352295Y6251702D01*
X1365757Y6237986D01*
X1379473Y6231128D01*
X1406652Y6231128D01*
X1420368Y6237986D01*
X1434084Y6251702D01*
X1440942Y6265163D01*
X1447545Y6285737D01*
X1447545Y6319773D01*
X1440942Y6340347D01*
X1434084Y6353810D01*
X1420368Y6367526D01*
X1406652Y6374384D01*
X1379473Y6374384D01*
X1492757Y6374384D02*
G01*
X1492757Y6231128D01*
X1492757Y6374384D02*
G01*
X1581404Y6374384D01*
X1492757Y6306057D02*
G01*
X1547113Y6306057D01*
X1626362Y6374384D02*
G01*
X1626362Y6231128D01*
X1626362Y6374384D02*
G01*
X1715007Y6374384D01*
X1626362Y6306057D02*
G01*
X1680718Y6306057D01*
X8674100Y7961884D02*
G01*
X8674100Y7818628D01*
X8674100Y7818628D02*
G01*
X8755888Y7818628D01*
X8800845Y7961884D02*
G01*
X8800845Y7818628D01*
X8800845Y7961884D02*
G01*
X8848597Y7961884D01*
X8869172Y7955026D01*
X8882634Y7941310D01*
X8889491Y7927847D01*
X8896350Y7907273D01*
X8896350Y7873237D01*
X8889491Y7852663D01*
X8882634Y7839202D01*
X8869172Y7825486D01*
X8848597Y7818628D01*
X8800845Y7818628D01*
X8941308Y7961884D02*
G01*
X8941308Y7818628D01*
X8941308Y7961884D02*
G01*
X9002775Y7961884D01*
X9023095Y7955026D01*
X9029954Y7948168D01*
X9036811Y7934705D01*
X9036811Y7920989D01*
X9029954Y7907273D01*
X9023095Y7900415D01*
X9002775Y7893558D01*
X8941308Y7893558D01*
X8989059Y7893558D02*
G01*
X9036811Y7818628D01*
X9818115Y4076700D02*
G01*
X9961372Y4076700D01*
X9818115Y4076700D02*
G01*
X9818115Y4165345D01*
X9886441Y4076700D02*
G01*
X9886441Y4131310D01*
X9818115Y4264913D02*
G01*
X9961372Y4210304D01*
X9818115Y4264913D02*
G01*
X9961372Y4319523D01*
X9913620Y4230878D02*
G01*
X9913620Y4298950D01*
X9818115Y4364481D02*
G01*
X9961372Y4364481D01*
X9818115Y4364481D02*
G01*
X9818115Y4425695D01*
X9824974Y4446270D01*
X9831831Y4453128D01*
X9845293Y4459986D01*
X9859009Y4459986D01*
X9872725Y4453128D01*
X9879584Y4446270D01*
X9886441Y4425695D01*
X9886441Y4364481D02*
G01*
X9886441Y4425695D01*
X9893045Y4446270D01*
X9899904Y4453128D01*
X9913620Y4459986D01*
X9933940Y4459986D01*
X9947656Y4453128D01*
X9954513Y4446270D01*
X9961372Y4425695D01*
X9961372Y4364481D01*
X9818115Y4650739D02*
G01*
X9824974Y4630420D01*
X9845293Y4616704D01*
X9879584Y4609845D01*
X9899904Y4609845D01*
X9933940Y4616704D01*
X9954513Y4630420D01*
X9961372Y4650739D01*
X9961372Y4664455D01*
X9954513Y4684776D01*
X9933940Y4698492D01*
X9899904Y4705350D01*
X9879584Y4705350D01*
X9845293Y4698492D01*
X9824974Y4684776D01*
X9818115Y4664455D01*
X9818115Y4650739D01*
X9818115Y4791202D02*
G01*
X9824974Y4770881D01*
X9845293Y4757165D01*
X9879584Y4750307D01*
X9899904Y4750307D01*
X9933940Y4757165D01*
X9954513Y4770881D01*
X9961372Y4791202D01*
X9961372Y4804918D01*
X9954513Y4825237D01*
X9933940Y4838954D01*
X9899904Y4845812D01*
X9879584Y4845812D01*
X9845293Y4838954D01*
X9824974Y4825237D01*
X9818115Y4804918D01*
X9818115Y4791202D01*
X9845293Y4890770D02*
G01*
X9838690Y4904486D01*
X9818115Y4924805D01*
X9961372Y4924805D01*
X9818115Y5010912D02*
G01*
X9824974Y4990337D01*
X9845293Y4976621D01*
X9879584Y4969763D01*
X9899904Y4969763D01*
X9933940Y4976621D01*
X9954513Y4990337D01*
X9961372Y5010912D01*
X9961372Y5024373D01*
X9954513Y5044947D01*
X9933940Y5058410D01*
X9899904Y5065268D01*
X9879584Y5065268D01*
X9845293Y5058410D01*
X9824974Y5044947D01*
X9818115Y5024373D01*
X9818115Y5010912D01*
X9818115Y5151120D02*
G01*
X9824974Y5130800D01*
X9845293Y5117084D01*
X9879584Y5110226D01*
X9899904Y5110226D01*
X9933940Y5117084D01*
X9954513Y5130800D01*
X9961372Y5151120D01*
X9961372Y5164836D01*
X9954513Y5185410D01*
X9933940Y5198871D01*
X9899904Y5205729D01*
X9879584Y5205729D01*
X9845293Y5198871D01*
X9824974Y5185410D01*
X9818115Y5164836D01*
X9818115Y5151120D01*
X9845293Y5250687D02*
G01*
X9838690Y5264404D01*
X9818115Y5284978D01*
X9961372Y5284978D01*
X9818115Y5489447D02*
G01*
X9961372Y5434837D01*
X9818115Y5489447D02*
G01*
X9961372Y5544057D01*
X9913620Y5455412D02*
G01*
X9913620Y5523484D01*
X9838690Y5684520D02*
G01*
X9824974Y5670804D01*
X9818115Y5650229D01*
X9818115Y5623052D01*
X9824974Y5602731D01*
X9838690Y5589015D01*
X9852152Y5589015D01*
X9865868Y5595873D01*
X9872725Y5602731D01*
X9879584Y5616194D01*
X9893045Y5657087D01*
X9899904Y5670804D01*
X9906761Y5677662D01*
X9920477Y5684520D01*
X9940797Y5684520D01*
X9954513Y5670804D01*
X9961372Y5650229D01*
X9961372Y5623052D01*
X9954513Y5602731D01*
X9940797Y5589015D01*
X9838690Y5824981D02*
G01*
X9824974Y5811265D01*
X9818115Y5790692D01*
X9818115Y5763513D01*
X9824974Y5742939D01*
X9838690Y5729478D01*
X9852152Y5729478D01*
X9865868Y5736336D01*
X9872725Y5742939D01*
X9879584Y5756655D01*
X9893045Y5797550D01*
X9899904Y5811265D01*
X9906761Y5818123D01*
X9920477Y5824981D01*
X9940797Y5824981D01*
X9954513Y5811265D01*
X9961372Y5790692D01*
X9961372Y5763513D01*
X9954513Y5742939D01*
X9940797Y5729478D01*
X9818115Y5869939D02*
G01*
X9886441Y5924550D01*
X9961372Y5924550D01*
X9818115Y5978905D02*
G01*
X9886441Y5924550D01*
X9818115Y6169913D02*
G01*
X9824974Y6149339D01*
X9845293Y6135878D01*
X9879584Y6129020D01*
X9899904Y6129020D01*
X9933940Y6135878D01*
X9954513Y6149339D01*
X9961372Y6169913D01*
X9961372Y6183629D01*
X9954513Y6203950D01*
X9933940Y6217665D01*
X9899904Y6224523D01*
X9879584Y6224523D01*
X9845293Y6217665D01*
X9824974Y6203950D01*
X9818115Y6183629D01*
X9818115Y6169913D01*
X9818115Y6310376D02*
G01*
X9824974Y6289802D01*
X9845293Y6276339D01*
X9879584Y6269481D01*
X9899904Y6269481D01*
X9933940Y6276339D01*
X9954513Y6289802D01*
X9961372Y6310376D01*
X9961372Y6324092D01*
X9954513Y6344412D01*
X9933940Y6358128D01*
X9899904Y6364986D01*
X9879584Y6364986D01*
X9845293Y6358128D01*
X9824974Y6344412D01*
X9818115Y6324092D01*
X9818115Y6310376D01*
X9845293Y6409944D02*
G01*
X9838690Y6423405D01*
X9818115Y6443979D01*
X9961372Y6443979D01*
X9818115Y6529831D02*
G01*
X9824974Y6509512D01*
X9845293Y6495795D01*
X9879584Y6488937D01*
X9899904Y6488937D01*
X9933940Y6495795D01*
X9954513Y6509512D01*
X9961372Y6529831D01*
X9961372Y6543547D01*
X9954513Y6563868D01*
X9933940Y6577584D01*
X9899904Y6584442D01*
X9879584Y6584442D01*
X9845293Y6577584D01*
X9824974Y6563868D01*
X9818115Y6543547D01*
X9818115Y6529831D01*
X9818115Y6670294D02*
G01*
X9824974Y6649973D01*
X9845293Y6636258D01*
X9879584Y6629400D01*
X9899904Y6629400D01*
X9933940Y6636258D01*
X9954513Y6649973D01*
X9961372Y6670294D01*
X9961372Y6684010D01*
X9954513Y6704329D01*
X9933940Y6718045D01*
X9899904Y6724904D01*
X9879584Y6724904D01*
X9845293Y6718045D01*
X9824974Y6704329D01*
X9818115Y6684010D01*
X9818115Y6670294D01*
X9845293Y6769862D02*
G01*
X9838690Y6783578D01*
X9818115Y6803897D01*
X9961372Y6803897D01*
X3084068Y8311642D02*
G01*
X3138677Y8311642D01*
X3144265Y8360918D01*
X3138677Y8355329D01*
X3122422Y8349995D01*
X3105911Y8349995D01*
X3089656Y8355329D01*
X3078734Y8366252D01*
X3073145Y8382508D01*
X3073145Y8393429D01*
X3078734Y8409939D01*
X3089656Y8420862D01*
X3105911Y8426195D01*
X3122422Y8426195D01*
X3138677Y8420862D01*
X3144265Y8415274D01*
X3149600Y8404352D01*
X3037331Y8311642D02*
G01*
X2993643Y8426195D01*
X2949956Y8311642D02*
G01*
X2993643Y8426195D01*
X2913888Y8311642D02*
G01*
X2913888Y8426195D01*
X2913888Y8311642D02*
G01*
X2875788Y8311642D01*
X2859531Y8317229D01*
X2848609Y8328152D01*
X2843022Y8339073D01*
X2837688Y8355329D01*
X2837688Y8382508D01*
X2843022Y8399018D01*
X2848609Y8409939D01*
X2859531Y8420862D01*
X2875788Y8426195D01*
X2913888Y8426195D01*
X2719831Y8339073D02*
G01*
X2725165Y8328152D01*
X2736088Y8317229D01*
X2747009Y8311642D01*
X2768854Y8311642D01*
X2779775Y8317229D01*
X2790697Y8328152D01*
X2796031Y8339073D01*
X2801620Y8355329D01*
X2801620Y8382508D01*
X2796031Y8399018D01*
X2790697Y8409939D01*
X2779775Y8420862D01*
X2768854Y8426195D01*
X2747009Y8426195D01*
X2736088Y8420862D01*
X2725165Y8409939D01*
X2719831Y8399018D01*
X1738121Y8143747D02*
G01*
X1738121Y8045704D01*
X1689100Y8094726D02*
G01*
X1787397Y8094726D01*
X2667000Y8082026D02*
G01*
X2765297Y8082026D01*
X4299458Y3111500D02*
G01*
X4184904Y3111500D01*
X4299458Y3111500D02*
G01*
X4184904Y3035045D01*
X4299458Y3035045D02*
G01*
X4184904Y3035045D01*
X4272025Y2917444D02*
G01*
X4282947Y2922778D01*
X4293870Y2933700D01*
X4299458Y2944621D01*
X4299458Y2966465D01*
X4293870Y2977387D01*
X4282947Y2988310D01*
X4272025Y2993644D01*
X4255770Y2999231D01*
X4228591Y2999231D01*
X4212081Y2993644D01*
X4201159Y2988310D01*
X4190238Y2977387D01*
X4184904Y2966465D01*
X4184904Y2944621D01*
X4190238Y2933700D01*
X4201159Y2922778D01*
X4212081Y2917444D01*
X5315458Y3111500D02*
G01*
X5200904Y3111500D01*
X5315458Y3111500D02*
G01*
X5200904Y3035045D01*
X5315458Y3035045D02*
G01*
X5200904Y3035045D01*
X5288025Y2917444D02*
G01*
X5298947Y2922778D01*
X5309870Y2933700D01*
X5315458Y2944621D01*
X5315458Y2966465D01*
X5309870Y2977387D01*
X5298947Y2988310D01*
X5288025Y2993644D01*
X5271770Y2999231D01*
X5244591Y2999231D01*
X5228081Y2993644D01*
X5217159Y2988310D01*
X5206238Y2977387D01*
X5200904Y2966465D01*
X5200904Y2944621D01*
X5206238Y2933700D01*
X5217159Y2922778D01*
X5228081Y2917444D01*
X4553458Y3086100D02*
G01*
X4438904Y3086100D01*
X4553458Y3124200D02*
G01*
X4553458Y3047745D01*
X4553458Y3011931D02*
G01*
X4438904Y2935478D01*
X4553458Y2935478D02*
G01*
X4438904Y3011931D01*
X4820158Y3124200D02*
G01*
X4705604Y3124200D01*
X4820158Y3124200D02*
G01*
X4820158Y3075178D01*
X4814570Y3058668D01*
X4809236Y3053334D01*
X4798313Y3047745D01*
X4787391Y3047745D01*
X4776470Y3053334D01*
X4770881Y3058668D01*
X4765547Y3075178D01*
X4765547Y3124200D01*
X4765547Y3086100D02*
G01*
X4705604Y3047745D01*
X4820158Y3011931D02*
G01*
X4705604Y2935478D01*
X4820158Y2935478D02*
G01*
X4705604Y3011931D01*
X5061458Y3124200D02*
G01*
X4946904Y3080512D01*
X5061458Y3036823D02*
G01*
X4946904Y3080512D01*
X5061458Y3001010D02*
G01*
X4946904Y3001010D01*
X5061458Y2964942D02*
G01*
X4946904Y2964942D01*
X5061458Y2964942D02*
G01*
X4946904Y2888487D01*
X5061458Y2888487D02*
G01*
X4946904Y2888487D01*
X5542025Y3055112D02*
G01*
X5552947Y3060445D01*
X5563870Y3071368D01*
X5569458Y3082289D01*
X5569458Y3104134D01*
X5563870Y3115055D01*
X5552947Y3125978D01*
X5542025Y3131565D01*
X5525770Y3136900D01*
X5498591Y3136900D01*
X5482081Y3131565D01*
X5471159Y3125978D01*
X5460238Y3115055D01*
X5454904Y3104134D01*
X5454904Y3082289D01*
X5460238Y3071368D01*
X5471159Y3060445D01*
X5482081Y3055112D01*
X5498591Y3055112D01*
X5498591Y3082289D02*
G01*
X5498591Y3055112D01*
X5569458Y3019044D02*
G01*
X5454904Y3019044D01*
X5569458Y3019044D02*
G01*
X5454904Y2942844D01*
X5569458Y2942844D02*
G01*
X5454904Y2942844D01*
X5569458Y2906776D02*
G01*
X5454904Y2906776D01*
X5569458Y2906776D02*
G01*
X5569458Y2868421D01*
X5563870Y2852165D01*
X5552947Y2841244D01*
X5542025Y2835910D01*
X5525770Y2830321D01*
X5498591Y2830321D01*
X5482081Y2835910D01*
X5471159Y2841244D01*
X5460238Y2852165D01*
X5454904Y2868421D01*
X5454904Y2906776D01*
X6215634Y3205479D02*
G01*
X6204204Y3228086D01*
X6181597Y3250692D01*
X6158738Y3262121D01*
X6113272Y3262121D01*
X6090665Y3250692D01*
X6067806Y3228086D01*
X6056629Y3205479D01*
X6045200Y3171189D01*
X6045200Y3114547D01*
X6056629Y3080257D01*
X6067806Y3057652D01*
X6090665Y3034792D01*
X6113272Y3023615D01*
X6158738Y3023615D01*
X6181597Y3034792D01*
X6204204Y3057652D01*
X6215634Y3080257D01*
X6301993Y3182620D02*
G01*
X6370320Y3023615D01*
X6438391Y3182620D02*
G01*
X6370320Y3023615D01*
X6347459Y2978150D01*
X6324854Y2955289D01*
X6301993Y2944113D01*
X6290563Y2944113D01*
X6513322Y3262121D02*
G01*
X6513322Y3023615D01*
X6513322Y3262121D02*
G01*
X6661150Y3262121D01*
X6513322Y3148584D02*
G01*
X6604254Y3148584D01*
X6513322Y3023615D02*
G01*
X6661150Y3023615D01*
X6736079Y3182620D02*
G01*
X6736079Y3023615D01*
X6736079Y3137154D02*
G01*
X6770115Y3171189D01*
X6792975Y3182620D01*
X6827011Y3182620D01*
X6849618Y3171189D01*
X6861047Y3137154D01*
X6861047Y3023615D01*
X6936231Y3182620D02*
G01*
X7004304Y3023615D01*
X7072375Y3182620D02*
G01*
X7004304Y3023615D01*
X7147559Y3262121D02*
G01*
X7158736Y3250692D01*
X7170165Y3262121D01*
X7158736Y3273552D01*
X7147559Y3262121D01*
X7158736Y3182620D02*
G01*
X7158736Y3023615D01*
X7245095Y3182620D02*
G01*
X7245095Y3023615D01*
X7245095Y3114547D02*
G01*
X7256525Y3148584D01*
X7279386Y3171189D01*
X7301991Y3182620D01*
X7336027Y3182620D01*
X7467854Y3182620D02*
G01*
X7445247Y3171189D01*
X7422388Y3148584D01*
X7411211Y3114547D01*
X7411211Y3091687D01*
X7422388Y3057652D01*
X7445247Y3034792D01*
X7467854Y3023615D01*
X7501890Y3023615D01*
X7524750Y3034792D01*
X7547356Y3057652D01*
X7558786Y3091687D01*
X7558786Y3114547D01*
X7547356Y3148584D01*
X7524750Y3171189D01*
X7501890Y3182620D01*
X7467854Y3182620D01*
X7633715Y3182620D02*
G01*
X7633715Y3023615D01*
X7633715Y3137154D02*
G01*
X7668006Y3171189D01*
X7690611Y3182620D01*
X7724647Y3182620D01*
X7747508Y3171189D01*
X7758938Y3137154D01*
X7758938Y3023615D01*
X8008874Y3262121D02*
G01*
X8008874Y3023615D01*
X8008874Y3262121D02*
G01*
X8110981Y3262121D01*
X8145272Y3250692D01*
X8156447Y3239515D01*
X8167877Y3216655D01*
X8167877Y3194050D01*
X8156447Y3171189D01*
X8145272Y3160013D01*
X8110981Y3148584D01*
X8008874Y3148584D01*
X8088375Y3148584D02*
G01*
X8167877Y3023615D01*
X8242808Y3114547D02*
G01*
X8379206Y3114547D01*
X8379206Y3137154D01*
X8368029Y3160013D01*
X8356600Y3171189D01*
X8333740Y3182620D01*
X8299704Y3182620D01*
X8277097Y3171189D01*
X8254238Y3148584D01*
X8242808Y3114547D01*
X8242808Y3091687D01*
X8254238Y3057652D01*
X8277097Y3034792D01*
X8299704Y3023615D01*
X8333740Y3023615D01*
X8356600Y3034792D01*
X8379206Y3057652D01*
X8454390Y3182620D02*
G01*
X8522461Y3023615D01*
X8590534Y3182620D02*
G01*
X8522461Y3023615D01*
X8840724Y3216655D02*
G01*
X8863329Y3228086D01*
X8897365Y3262121D01*
X8897365Y3023615D01*
X8983725Y3080257D02*
G01*
X8972550Y3069081D01*
X8983725Y3057652D01*
X8995156Y3069081D01*
X8983725Y3080257D01*
X9138411Y3262121D02*
G01*
X9104375Y3250692D01*
X9081515Y3216655D01*
X9070086Y3160013D01*
X9070086Y3125723D01*
X9081515Y3069081D01*
X9104375Y3034792D01*
X9138411Y3023615D01*
X9161018Y3023615D01*
X9195308Y3034792D01*
X9217913Y3069081D01*
X9229343Y3125723D01*
X9229343Y3160013D01*
X9217913Y3216655D01*
X9195308Y3250692D01*
X9161018Y3262121D01*
X9138411Y3262121D01*
X6133845Y2857500D02*
G01*
X6128004Y2869437D01*
X6116065Y2881121D01*
X6104381Y2886963D01*
X6080759Y2886963D01*
X6068822Y2881121D01*
X6057138Y2869437D01*
X6051041Y2857500D01*
X6045200Y2839720D01*
X6045200Y2810255D01*
X6051041Y2792476D01*
X6057138Y2780792D01*
X6068822Y2768854D01*
X6080759Y2763012D01*
X6104381Y2763012D01*
X6116065Y2768854D01*
X6128004Y2780792D01*
X6133845Y2792476D01*
X6202425Y2845815D02*
G01*
X6190488Y2839720D01*
X6178804Y2828036D01*
X6172961Y2810255D01*
X6172961Y2798571D01*
X6178804Y2780792D01*
X6190488Y2768854D01*
X6202425Y2763012D01*
X6220206Y2763012D01*
X6231890Y2768854D01*
X6243827Y2780792D01*
X6249670Y2798571D01*
X6249670Y2810255D01*
X6243827Y2828036D01*
X6231890Y2839720D01*
X6220206Y2845815D01*
X6202425Y2845815D01*
X6288531Y2845815D02*
G01*
X6288531Y2721610D01*
X6288531Y2828036D02*
G01*
X6300470Y2839720D01*
X6312408Y2845815D01*
X6329934Y2845815D01*
X6341872Y2839720D01*
X6353556Y2828036D01*
X6359652Y2810255D01*
X6359652Y2798571D01*
X6353556Y2780792D01*
X6341872Y2768854D01*
X6329934Y2763012D01*
X6312408Y2763012D01*
X6300470Y2768854D01*
X6288531Y2780792D01*
X6404356Y2845815D02*
G01*
X6439915Y2763012D01*
X6475475Y2845815D02*
G01*
X6439915Y2763012D01*
X6428231Y2739389D01*
X6416293Y2727452D01*
X6404356Y2721610D01*
X6398513Y2721610D01*
X6514338Y2845815D02*
G01*
X6514338Y2763012D01*
X6514338Y2810255D02*
G01*
X6520179Y2828036D01*
X6532118Y2839720D01*
X6543802Y2845815D01*
X6561581Y2845815D01*
X6600697Y2886963D02*
G01*
X6606540Y2881121D01*
X6612381Y2886963D01*
X6606540Y2893060D01*
X6600697Y2886963D01*
X6606540Y2845815D02*
G01*
X6606540Y2763012D01*
X6722363Y2845815D02*
G01*
X6722363Y2751073D01*
X6716522Y2733547D01*
X6710679Y2727452D01*
X6698741Y2721610D01*
X6680961Y2721610D01*
X6669277Y2727452D01*
X6722363Y2828036D02*
G01*
X6710679Y2839720D01*
X6698741Y2845815D01*
X6680961Y2845815D01*
X6669277Y2839720D01*
X6657340Y2828036D01*
X6651497Y2810255D01*
X6651497Y2798571D01*
X6657340Y2780792D01*
X6669277Y2768854D01*
X6680961Y2763012D01*
X6698741Y2763012D01*
X6710679Y2768854D01*
X6722363Y2780792D01*
X6761479Y2886963D02*
G01*
X6761479Y2763012D01*
X6761479Y2822194D02*
G01*
X6779006Y2839720D01*
X6790943Y2845815D01*
X6808724Y2845815D01*
X6820408Y2839720D01*
X6826504Y2822194D01*
X6826504Y2763012D01*
X6883145Y2886963D02*
G01*
X6883145Y2786634D01*
X6888988Y2768854D01*
X6900925Y2763012D01*
X6912609Y2763012D01*
X6865365Y2845815D02*
G01*
X6906768Y2845815D01*
X7084059Y2910839D02*
G01*
X7072122Y2898902D01*
X7060438Y2881121D01*
X7048500Y2857500D01*
X7042658Y2828036D01*
X7042658Y2804413D01*
X7048500Y2774695D01*
X7060438Y2751073D01*
X7072122Y2733547D01*
X7084059Y2721610D01*
X7194041Y2828036D02*
G01*
X7182104Y2839720D01*
X7170165Y2845815D01*
X7152640Y2845815D01*
X7140702Y2839720D01*
X7129018Y2828036D01*
X7122922Y2810255D01*
X7122922Y2798571D01*
X7129018Y2780792D01*
X7140702Y2768854D01*
X7152640Y2763012D01*
X7170165Y2763012D01*
X7182104Y2768854D01*
X7194041Y2780792D01*
X7232904Y2910839D02*
G01*
X7244841Y2898902D01*
X7256525Y2881121D01*
X7268463Y2857500D01*
X7274306Y2828036D01*
X7274306Y2804413D01*
X7268463Y2774695D01*
X7256525Y2751073D01*
X7244841Y2733547D01*
X7232904Y2721610D01*
X7410195Y2857500D02*
G01*
X7410195Y2863342D01*
X7416038Y2875279D01*
X7422134Y2881121D01*
X7433818Y2886963D01*
X7457440Y2886963D01*
X7469377Y2881121D01*
X7475220Y2875279D01*
X7481061Y2863342D01*
X7481061Y2851657D01*
X7475220Y2839720D01*
X7463281Y2822194D01*
X7404354Y2763012D01*
X7486904Y2763012D01*
X7561579Y2886963D02*
G01*
X7543800Y2881121D01*
X7531861Y2863342D01*
X7526020Y2833878D01*
X7526020Y2816097D01*
X7531861Y2786634D01*
X7543800Y2768854D01*
X7561579Y2763012D01*
X7573263Y2763012D01*
X7591043Y2768854D01*
X7602727Y2786634D01*
X7608824Y2816097D01*
X7608824Y2833878D01*
X7602727Y2863342D01*
X7591043Y2881121D01*
X7573263Y2886963D01*
X7561579Y2886963D01*
X7653527Y2857500D02*
G01*
X7653527Y2863342D01*
X7659624Y2875279D01*
X7665465Y2881121D01*
X7677404Y2886963D01*
X7701025Y2886963D01*
X7712709Y2881121D01*
X7718552Y2875279D01*
X7724647Y2863342D01*
X7724647Y2851657D01*
X7718552Y2839720D01*
X7706868Y2822194D01*
X7647686Y2763012D01*
X7730490Y2763012D01*
X7775447Y2857500D02*
G01*
X7775447Y2863342D01*
X7781290Y2875279D01*
X7787131Y2881121D01*
X7799070Y2886963D01*
X7822691Y2886963D01*
X7834375Y2881121D01*
X7840472Y2875279D01*
X7846313Y2863342D01*
X7846313Y2851657D01*
X7840472Y2839720D01*
X7828534Y2822194D01*
X7769352Y2763012D01*
X7852156Y2763012D01*
X8070850Y2857500D02*
G01*
X8065008Y2869437D01*
X8053070Y2881121D01*
X8041386Y2886963D01*
X8017763Y2886963D01*
X8005825Y2881121D01*
X7993888Y2869437D01*
X7988045Y2857500D01*
X7982204Y2839720D01*
X7982204Y2810255D01*
X7988045Y2792476D01*
X7993888Y2780792D01*
X8005825Y2768854D01*
X8017763Y2763012D01*
X8041386Y2763012D01*
X8053070Y2768854D01*
X8065008Y2780792D01*
X8070850Y2792476D01*
X8115808Y2845815D02*
G01*
X8151113Y2763012D01*
X8186674Y2845815D02*
G01*
X8151113Y2763012D01*
X8139429Y2739389D01*
X8127491Y2727452D01*
X8115808Y2721610D01*
X8109711Y2721610D01*
X8225536Y2845815D02*
G01*
X8225536Y2763012D01*
X8225536Y2810255D02*
G01*
X8231631Y2828036D01*
X8243315Y2839720D01*
X8255254Y2845815D01*
X8273034Y2845815D01*
X8311895Y2845815D02*
G01*
X8311895Y2786634D01*
X8317738Y2768854D01*
X8329675Y2763012D01*
X8347456Y2763012D01*
X8359140Y2768854D01*
X8376920Y2786634D01*
X8376920Y2845815D02*
G01*
X8376920Y2763012D01*
X8480806Y2828036D02*
G01*
X8474963Y2839720D01*
X8457184Y2845815D01*
X8439658Y2845815D01*
X8421877Y2839720D01*
X8416036Y2828036D01*
X8421877Y2816097D01*
X8433561Y2810255D01*
X8463279Y2804413D01*
X8474963Y2798571D01*
X8480806Y2786634D01*
X8480806Y2780792D01*
X8474963Y2768854D01*
X8457184Y2763012D01*
X8439658Y2763012D01*
X8421877Y2768854D01*
X8416036Y2780792D01*
X8610854Y2886963D02*
G01*
X8610854Y2763012D01*
X8610854Y2886963D02*
G01*
X8664193Y2886963D01*
X8681720Y2881121D01*
X8687815Y2875279D01*
X8693658Y2863342D01*
X8693658Y2851657D01*
X8687815Y2839720D01*
X8681720Y2833878D01*
X8664193Y2828036D01*
X8610854Y2828036D02*
G01*
X8664193Y2828036D01*
X8681720Y2822194D01*
X8687815Y2816097D01*
X8693658Y2804413D01*
X8693658Y2786634D01*
X8687815Y2774695D01*
X8681720Y2768854D01*
X8664193Y2763012D01*
X8610854Y2763012D01*
X8732774Y2845815D02*
G01*
X8732774Y2763012D01*
X8732774Y2810255D02*
G01*
X8738615Y2828036D01*
X8750300Y2839720D01*
X8762238Y2845815D01*
X8780018Y2845815D01*
X8818879Y2845815D02*
G01*
X8818879Y2786634D01*
X8824722Y2768854D01*
X8836659Y2763012D01*
X8854440Y2763012D01*
X8866124Y2768854D01*
X8883904Y2786634D01*
X8883904Y2845815D02*
G01*
X8883904Y2763012D01*
X8923020Y2845815D02*
G01*
X8923020Y2763012D01*
X8923020Y2822194D02*
G01*
X8940545Y2839720D01*
X8952484Y2845815D01*
X8970263Y2845815D01*
X8981947Y2839720D01*
X8988043Y2822194D01*
X8988043Y2763012D01*
X9026906Y2845815D02*
G01*
X9026906Y2763012D01*
X9026906Y2822194D02*
G01*
X9044686Y2839720D01*
X9056370Y2845815D01*
X9074150Y2845815D01*
X9086088Y2839720D01*
X9091929Y2822194D01*
X9091929Y2763012D01*
X9131045Y2810255D02*
G01*
X9201911Y2810255D01*
X9201911Y2822194D01*
X9195815Y2833878D01*
X9189974Y2839720D01*
X9178290Y2845815D01*
X9160509Y2845815D01*
X9148572Y2839720D01*
X9136888Y2828036D01*
X9131045Y2810255D01*
X9131045Y2798571D01*
X9136888Y2780792D01*
X9148572Y2768854D01*
X9160509Y2763012D01*
X9178290Y2763012D01*
X9189974Y2768854D01*
X9201911Y2780792D01*
X9240774Y2845815D02*
G01*
X9240774Y2763012D01*
X9240774Y2810255D02*
G01*
X9246615Y2828036D01*
X9258554Y2839720D01*
X9270491Y2845815D01*
X9288018Y2845815D01*
X6571488Y2597657D02*
G01*
X6557772Y2611373D01*
X6544309Y2618231D01*
X6523736Y2618231D01*
X6510274Y2611373D01*
X6496558Y2597657D01*
X6489700Y2577337D01*
X6489700Y2563621D01*
X6496558Y2543302D01*
X6510274Y2529586D01*
X6523736Y2522728D01*
X6544309Y2522728D01*
X6557772Y2529586D01*
X6571488Y2543302D01*
X6623304Y2618231D02*
G01*
X6664197Y2522728D01*
X6705091Y2618231D02*
G01*
X6664197Y2522728D01*
X6650481Y2495550D01*
X6637020Y2481834D01*
X6623304Y2474976D01*
X6616445Y2474976D01*
X6750050Y2618231D02*
G01*
X6750050Y2522728D01*
X6750050Y2577337D02*
G01*
X6756908Y2597657D01*
X6770624Y2611373D01*
X6784340Y2618231D01*
X6804659Y2618231D01*
X6849618Y2618231D02*
G01*
X6849618Y2550160D01*
X6856475Y2529586D01*
X6870191Y2522728D01*
X6890511Y2522728D01*
X6904227Y2529586D01*
X6924802Y2550160D01*
X6924802Y2618231D02*
G01*
X6924802Y2522728D01*
X7044690Y2597657D02*
G01*
X7037831Y2611373D01*
X7017511Y2618231D01*
X6996938Y2618231D01*
X6976618Y2611373D01*
X6969759Y2597657D01*
X6976618Y2584195D01*
X6990079Y2577337D01*
X7024370Y2570479D01*
X7037831Y2563621D01*
X7044690Y2550160D01*
X7044690Y2543302D01*
X7037831Y2529586D01*
X7017511Y2522728D01*
X6996938Y2522728D01*
X6976618Y2529586D01*
X6969759Y2543302D01*
X7089647Y2665984D02*
G01*
X7089647Y2522728D01*
X7089647Y2597657D02*
G01*
X7103363Y2611373D01*
X7117079Y2618231D01*
X7137400Y2618231D01*
X7151115Y2611373D01*
X7164577Y2597657D01*
X7171436Y2577337D01*
X7171436Y2563621D01*
X7164577Y2543302D01*
X7151115Y2529586D01*
X7137400Y2522728D01*
X7117079Y2522728D01*
X7103363Y2529586D01*
X7089647Y2543302D01*
X7216393Y2618231D02*
G01*
X7216393Y2550160D01*
X7223252Y2529586D01*
X7236968Y2522728D01*
X7257541Y2522728D01*
X7271004Y2529586D01*
X7291577Y2550160D01*
X7291577Y2618231D02*
G01*
X7291577Y2522728D01*
X7336536Y2665984D02*
G01*
X7343393Y2659126D01*
X7350252Y2665984D01*
X7343393Y2672842D01*
X7336536Y2665984D01*
X7343393Y2618231D02*
G01*
X7343393Y2522728D01*
X7395209Y2665984D02*
G01*
X7395209Y2522728D01*
X7460488Y2665984D02*
G01*
X7460488Y2550160D01*
X7467345Y2529586D01*
X7481061Y2522728D01*
X7494777Y2522728D01*
X7440168Y2618231D02*
G01*
X7487920Y2618231D01*
X7641843Y2611373D02*
G01*
X7635240Y2625089D01*
X7621524Y2631947D01*
X7600950Y2631947D01*
X7587488Y2625089D01*
X7580629Y2618231D01*
X7573772Y2597657D01*
X7573772Y2577337D01*
X7580629Y2563621D01*
X7594345Y2556763D01*
X7614665Y2556763D01*
X7628381Y2563621D01*
X7635240Y2577337D01*
X7600950Y2631947D02*
G01*
X7587488Y2618231D01*
X7580629Y2597657D01*
X7580629Y2577337D01*
X7587488Y2563621D01*
X7594345Y2556763D01*
X7641843Y2631947D02*
G01*
X7635240Y2577337D01*
X7635240Y2563621D01*
X7648702Y2556763D01*
X7662418Y2556763D01*
X7676134Y2570479D01*
X7682991Y2591054D01*
X7682991Y2604515D01*
X7676134Y2625089D01*
X7669275Y2638805D01*
X7655559Y2652268D01*
X7641843Y2659126D01*
X7621524Y2665984D01*
X7600950Y2665984D01*
X7580629Y2659126D01*
X7566913Y2652268D01*
X7553452Y2638805D01*
X7546593Y2625089D01*
X7539736Y2604515D01*
X7539736Y2584195D01*
X7546593Y2563621D01*
X7553452Y2550160D01*
X7566913Y2536444D01*
X7580629Y2529586D01*
X7600950Y2522728D01*
X7621524Y2522728D01*
X7641843Y2529586D01*
X7655559Y2536444D01*
X7662418Y2543302D01*
X7648702Y2631947D02*
G01*
X7641843Y2577337D01*
X7641843Y2563621D01*
X7648702Y2556763D01*
X7809738Y2618231D02*
G01*
X7809738Y2509265D01*
X7802879Y2488692D01*
X7796022Y2481834D01*
X7782306Y2474976D01*
X7761986Y2474976D01*
X7748270Y2481834D01*
X7809738Y2597657D02*
G01*
X7796022Y2611373D01*
X7782306Y2618231D01*
X7761986Y2618231D01*
X7748270Y2611373D01*
X7734808Y2597657D01*
X7727950Y2577337D01*
X7727950Y2563621D01*
X7734808Y2543302D01*
X7748270Y2529586D01*
X7761986Y2522728D01*
X7782306Y2522728D01*
X7796022Y2529586D01*
X7809738Y2543302D01*
X7854695Y2618231D02*
G01*
X7854695Y2522728D01*
X7854695Y2591054D02*
G01*
X7875270Y2611373D01*
X7888731Y2618231D01*
X7909306Y2618231D01*
X7922768Y2611373D01*
X7929625Y2591054D01*
X7929625Y2522728D01*
X7929625Y2591054D02*
G01*
X7950200Y2611373D01*
X7963661Y2618231D01*
X7984236Y2618231D01*
X7997952Y2611373D01*
X8004809Y2591054D01*
X8004809Y2522728D01*
X8131556Y2618231D02*
G01*
X8131556Y2522728D01*
X8131556Y2597657D02*
G01*
X8117840Y2611373D01*
X8104124Y2618231D01*
X8083804Y2618231D01*
X8070088Y2611373D01*
X8056625Y2597657D01*
X8049768Y2577337D01*
X8049768Y2563621D01*
X8056625Y2543302D01*
X8070088Y2529586D01*
X8083804Y2522728D01*
X8104124Y2522728D01*
X8117840Y2529586D01*
X8131556Y2543302D01*
X8176513Y2665984D02*
G01*
X8183372Y2659126D01*
X8190229Y2665984D01*
X8183372Y2672842D01*
X8176513Y2665984D01*
X8183372Y2618231D02*
G01*
X8183372Y2522728D01*
X8235188Y2665984D02*
G01*
X8235188Y2522728D01*
X8287004Y2556763D02*
G01*
X8280145Y2550160D01*
X8287004Y2543302D01*
X8293861Y2550160D01*
X8287004Y2556763D01*
X8420608Y2597657D02*
G01*
X8406891Y2611373D01*
X8393429Y2618231D01*
X8372856Y2618231D01*
X8359140Y2611373D01*
X8345677Y2597657D01*
X8338820Y2577337D01*
X8338820Y2563621D01*
X8345677Y2543302D01*
X8359140Y2529586D01*
X8372856Y2522728D01*
X8393429Y2522728D01*
X8406891Y2529586D01*
X8420608Y2543302D01*
X8499602Y2618231D02*
G01*
X8486140Y2611373D01*
X8472424Y2597657D01*
X8465565Y2577337D01*
X8465565Y2563621D01*
X8472424Y2543302D01*
X8486140Y2529586D01*
X8499602Y2522728D01*
X8520175Y2522728D01*
X8533891Y2529586D01*
X8547354Y2543302D01*
X8554211Y2563621D01*
X8554211Y2577337D01*
X8547354Y2597657D01*
X8533891Y2611373D01*
X8520175Y2618231D01*
X8499602Y2618231D01*
X8599170Y2618231D02*
G01*
X8599170Y2522728D01*
X8599170Y2591054D02*
G01*
X8619743Y2611373D01*
X8633206Y2618231D01*
X8653779Y2618231D01*
X8667495Y2611373D01*
X8674354Y2591054D01*
X8674354Y2522728D01*
X8674354Y2591054D02*
G01*
X8694674Y2611373D01*
X8708390Y2618231D01*
X8728709Y2618231D01*
X8742425Y2611373D01*
X8749284Y2591054D01*
X8749284Y2522728D01*
X6498843Y6227063D02*
G01*
X6451600Y6103112D01*
X6498843Y6227063D02*
G01*
X6546088Y6103112D01*
X6469379Y6144513D02*
G01*
X6528308Y6144513D01*
X6585204Y6227063D02*
G01*
X6585204Y6103112D01*
X6585204Y6103112D02*
G01*
X6656070Y6103112D01*
X6742429Y6227063D02*
G01*
X6694931Y6103112D01*
X6742429Y6227063D02*
G01*
X6789674Y6103112D01*
X6712711Y6144513D02*
G01*
X6771893Y6144513D01*
X6828536Y6227063D02*
G01*
X6828536Y6103112D01*
X6828536Y6227063D02*
G01*
X6881875Y6227063D01*
X6899402Y6221221D01*
X6905497Y6215379D01*
X6911340Y6203442D01*
X6911340Y6191757D01*
X6905497Y6179820D01*
X6899402Y6173978D01*
X6881875Y6168136D01*
X6828536Y6168136D01*
X6869938Y6168136D02*
G01*
X6911340Y6103112D01*
X6950202Y6227063D02*
G01*
X6950202Y6103112D01*
X6950202Y6227063D02*
G01*
X6997700Y6103112D01*
X7044943Y6227063D02*
G01*
X6997700Y6103112D01*
X7044943Y6227063D02*
G01*
X7044943Y6103112D01*
D10*
X6642100Y5423915D02*
G01*
X6642100Y5314950D01*
X6642100Y5423915D02*
G01*
X6678422Y5423915D01*
X6694170Y5418836D01*
X6704329Y5408421D01*
X6709663Y5398007D01*
X6714743Y5382260D01*
X6714743Y5356352D01*
X6709663Y5340857D01*
X6704329Y5330444D01*
X6694170Y5320029D01*
X6678422Y5314950D01*
X6642100Y5314950D01*
X6759447Y5423915D02*
G01*
X6816597Y5423915D01*
X6785609Y5382260D01*
X6801104Y5382260D01*
X6811518Y5377179D01*
X6816597Y5372100D01*
X6821931Y5356352D01*
X6821931Y5345937D01*
X6816597Y5330444D01*
X6806184Y5320029D01*
X6790690Y5314950D01*
X6775195Y5314950D01*
X6759447Y5320029D01*
X6754368Y5325110D01*
X6749034Y5335523D01*
X3069843Y2754121D02*
G01*
X3059429Y2764536D01*
X3043936Y2769615D01*
X3023108Y2769615D01*
X3007613Y2764536D01*
X2997200Y2754121D01*
X2997200Y2743707D01*
X3002279Y2733294D01*
X3007613Y2727960D01*
X3018027Y2722879D01*
X3049270Y2712465D01*
X3059429Y2707386D01*
X3064763Y2702052D01*
X3069843Y2691637D01*
X3069843Y2676144D01*
X3059429Y2665729D01*
X3043936Y2660650D01*
X3023108Y2660650D01*
X3007613Y2665729D01*
X2997200Y2676144D01*
X3182111Y2743707D02*
G01*
X3177031Y2754121D01*
X3166618Y2764536D01*
X3156204Y2769615D01*
X3135375Y2769615D01*
X3124961Y2764536D01*
X3114547Y2754121D01*
X3109468Y2743707D01*
X3104134Y2727960D01*
X3104134Y2702052D01*
X3109468Y2686557D01*
X3114547Y2676144D01*
X3124961Y2665729D01*
X3135375Y2660650D01*
X3156204Y2660650D01*
X3166618Y2665729D01*
X3177031Y2676144D01*
X3182111Y2686557D01*
X3182111Y2702052D01*
X3156204Y2702052D02*
G01*
X3182111Y2702052D01*
X3216402Y2748787D02*
G01*
X3226815Y2754121D01*
X3242309Y2769615D01*
X3242309Y2660650D01*
X2958591Y5411978D02*
G01*
X2948177Y5406644D01*
X2937763Y5396229D01*
X2932684Y5386070D01*
X2932684Y5365242D01*
X2937763Y5354828D01*
X2948177Y5344413D01*
X2958591Y5339079D01*
X2974340Y5334000D01*
X3000247Y5334000D01*
X3015741Y5339079D01*
X3026156Y5344413D01*
X3036570Y5354828D01*
X3041650Y5365242D01*
X3041650Y5386070D01*
X3036570Y5396229D01*
X3026156Y5406644D01*
X3015741Y5411978D01*
X2953511Y5446268D02*
G01*
X2948177Y5456681D01*
X2932684Y5472176D01*
X3041650Y5472176D01*
X3060700Y6427215D02*
G01*
X3060700Y6318250D01*
X3060700Y6427215D02*
G01*
X3097022Y6427215D01*
X3112770Y6422136D01*
X3122929Y6411721D01*
X3128263Y6401307D01*
X3133343Y6385560D01*
X3133343Y6359652D01*
X3128263Y6344157D01*
X3122929Y6333744D01*
X3112770Y6323329D01*
X3097022Y6318250D01*
X3060700Y6318250D01*
X3167634Y6406387D02*
G01*
X3178047Y6411721D01*
X3193795Y6427215D01*
X3193795Y6318250D01*
X1879600Y4458715D02*
G01*
X1879600Y4349750D01*
X1879600Y4458715D02*
G01*
X1915921Y4458715D01*
X1931670Y4453636D01*
X1941829Y4443221D01*
X1947163Y4432807D01*
X1952243Y4417060D01*
X1952243Y4391152D01*
X1947163Y4375657D01*
X1941829Y4365244D01*
X1931670Y4354829D01*
X1915921Y4349750D01*
X1879600Y4349750D01*
X1991868Y4432807D02*
G01*
X1991868Y4437887D01*
X1996947Y4448302D01*
X2002281Y4453636D01*
X2012695Y4458715D01*
X2033270Y4458715D01*
X2043684Y4453636D01*
X2049018Y4448302D01*
X2054097Y4437887D01*
X2054097Y4427473D01*
X2049018Y4417060D01*
X2038604Y4401565D01*
X1986534Y4349750D01*
X2059431Y4349750D01*
X5715000Y3391915D02*
G01*
X5715000Y3282950D01*
X5787643Y3391915D02*
G01*
X5787643Y3282950D01*
X5715000Y3340100D02*
G01*
X5787643Y3340100D01*
X5821934Y3371087D02*
G01*
X5832347Y3376421D01*
X5848095Y3391915D01*
X5848095Y3282950D01*
X2132329Y7593584D02*
G01*
X2132329Y7676642D01*
X2137663Y7692389D01*
X2142743Y7697470D01*
X2153158Y7702550D01*
X2163572Y7702550D01*
X2173986Y7697470D01*
X2179320Y7692389D01*
X2184400Y7676642D01*
X2184400Y7666228D01*
X2098040Y7593584D02*
G01*
X2098040Y7702550D01*
X2098040Y7593584D02*
G01*
X2051304Y7593584D01*
X2035809Y7598663D01*
X2030729Y7603997D01*
X2025395Y7614412D01*
X2025395Y7629905D01*
X2030729Y7640320D01*
X2035809Y7645400D01*
X2051304Y7650734D01*
X2098040Y7650734D01*
X1986025Y7619492D02*
G01*
X1986025Y7614412D01*
X1980691Y7603997D01*
X1975611Y7598663D01*
X1965197Y7593584D01*
X1944370Y7593584D01*
X1933956Y7598663D01*
X1928876Y7603997D01*
X1923542Y7614412D01*
X1923542Y7624826D01*
X1928876Y7635239D01*
X1939290Y7650734D01*
X1991106Y7702550D01*
X1918462Y7702550D01*
X2019300Y3950715D02*
G01*
X2019300Y3841750D01*
X2019300Y3950715D02*
G01*
X2066036Y3950715D01*
X2081529Y3945636D01*
X2086863Y3940302D01*
X2091943Y3929887D01*
X2091943Y3919473D01*
X2086863Y3909060D01*
X2081529Y3903979D01*
X2066036Y3898900D01*
X2019300Y3898900D01*
X2055622Y3898900D02*
G01*
X2091943Y3841750D01*
X2131568Y3924807D02*
G01*
X2131568Y3929887D01*
X2136647Y3940302D01*
X2141981Y3945636D01*
X2152395Y3950715D01*
X2172970Y3950715D01*
X2183384Y3945636D01*
X2188718Y3940302D01*
X2193797Y3929887D01*
X2193797Y3919473D01*
X2188718Y3909060D01*
X2178304Y3893565D01*
X2126234Y3841750D01*
X2199131Y3841750D01*
X1827021Y5616955D02*
G01*
X1837436Y5627370D01*
X1842515Y5642863D01*
X1842515Y5663692D01*
X1837436Y5679186D01*
X1827021Y5689600D01*
X1816607Y5689600D01*
X1806194Y5684520D01*
X1800860Y5679186D01*
X1795779Y5668771D01*
X1785365Y5637529D01*
X1780286Y5627370D01*
X1774952Y5622036D01*
X1764537Y5616955D01*
X1749044Y5616955D01*
X1738629Y5627370D01*
X1733550Y5642863D01*
X1733550Y5663692D01*
X1738629Y5679186D01*
X1749044Y5689600D01*
X1842515Y5582665D02*
G01*
X1733550Y5556504D01*
X1842515Y5530595D02*
G01*
X1733550Y5556504D01*
X1842515Y5530595D02*
G01*
X1733550Y5504687D01*
X1842515Y5478779D02*
G01*
X1733550Y5504687D01*
X1821687Y5444489D02*
G01*
X1827021Y5434076D01*
X1842515Y5418328D01*
X1733550Y5418328D01*
X4775200Y8014715D02*
G01*
X4775200Y7936737D01*
X4780279Y7921244D01*
X4790693Y7910829D01*
X4806441Y7905750D01*
X4816856Y7905750D01*
X4832350Y7910829D01*
X4842763Y7921244D01*
X4847843Y7936737D01*
X4847843Y8014715D01*
X4882134Y7993887D02*
G01*
X4892547Y7999221D01*
X4908295Y8014715D01*
X4908295Y7905750D01*
D11*
X4942077Y7734300D02*
G01*
X4748275Y7734300D01*
X4942077Y7605013D02*
G01*
X4748275Y7605013D01*
X4849875Y7734300D02*
G01*
X4849875Y7605013D01*
X4877561Y7544054D02*
G01*
X4785106Y7544054D01*
X4757420Y7534910D01*
X4748275Y7516368D01*
X4748275Y7488681D01*
X4757420Y7470139D01*
X4785106Y7442454D01*
X4877561Y7442454D02*
G01*
X4748275Y7442454D01*
X4877561Y7279894D02*
G01*
X4748275Y7381494D01*
X4877561Y7381494D02*
G01*
X4877561Y7279894D01*
X4748275Y7381494D02*
G01*
X4748275Y7279894D01*
X4877561Y7117334D02*
G01*
X4748275Y7218934D01*
X4877561Y7218934D02*
G01*
X4877561Y7117334D01*
X4748275Y7218934D02*
G01*
X4748275Y7117334D01*
X4877561Y6945629D02*
G01*
X4748275Y6945629D01*
X4849875Y6945629D02*
G01*
X4868163Y6963918D01*
X4877561Y6982460D01*
X4877561Y7010145D01*
X4868163Y7028687D01*
X4849875Y7047229D01*
X4822190Y7056373D01*
X4803647Y7056373D01*
X4775961Y7047229D01*
X4757420Y7028687D01*
X4748275Y7010145D01*
X4748275Y6982460D01*
X4757420Y6963918D01*
X4775961Y6945629D01*
X4942077Y6884670D02*
G01*
X4748275Y6884670D01*
X4840477Y6884670D02*
G01*
X4868163Y6856729D01*
X4877561Y6838442D01*
X4877561Y6810755D01*
X4868163Y6792213D01*
X4840477Y6783070D01*
X4748275Y6783070D01*
X4942077Y6579870D02*
G01*
X4748275Y6579870D01*
X4942077Y6579870D02*
G01*
X4942077Y6459728D01*
X4849875Y6579870D02*
G01*
X4849875Y6505955D01*
X4748275Y6579870D02*
G01*
X4748275Y6459728D01*
X4914391Y6269481D02*
G01*
X4932934Y6287770D01*
X4942077Y6315710D01*
X4942077Y6352539D01*
X4932934Y6380226D01*
X4914391Y6398768D01*
X4895850Y6398768D01*
X4877561Y6389370D01*
X4868163Y6380226D01*
X4859020Y6361684D01*
X4840477Y6306312D01*
X4831334Y6287770D01*
X4822190Y6278626D01*
X4803647Y6269481D01*
X4775961Y6269481D01*
X4757420Y6287770D01*
X4748275Y6315710D01*
X4748275Y6352539D01*
X4757420Y6380226D01*
X4775961Y6398768D01*
X4942077Y6208521D02*
G01*
X4748275Y6208521D01*
X4942077Y6208521D02*
G01*
X4942077Y6125210D01*
X4932934Y6097523D01*
X4923790Y6088379D01*
X4905247Y6079236D01*
X4877561Y6079236D01*
X4859020Y6088379D01*
X4849875Y6097523D01*
X4840477Y6125210D01*
X4840477Y6208521D01*
X4831334Y6018276D02*
G01*
X4831334Y5851905D01*
X4942077Y5744718D02*
G01*
X4932934Y5772404D01*
X4914391Y5781802D01*
X4895850Y5781802D01*
X4877561Y5772404D01*
X4868163Y5754115D01*
X4859020Y5717031D01*
X4849875Y5689345D01*
X4831334Y5670804D01*
X4812791Y5661660D01*
X4785106Y5661660D01*
X4766563Y5670804D01*
X4757420Y5680202D01*
X4748275Y5707887D01*
X4748275Y5744718D01*
X4757420Y5772404D01*
X4766563Y5781802D01*
X4785106Y5790945D01*
X4812791Y5790945D01*
X4831334Y5781802D01*
X4849875Y5763260D01*
X4859020Y5735573D01*
X4868163Y5698489D01*
X4877561Y5680202D01*
X4895850Y5670804D01*
X4914391Y5670804D01*
X4932934Y5680202D01*
X4942077Y5707887D01*
X4942077Y5744718D01*
X4895850Y5591555D02*
G01*
X4905247Y5591555D01*
X4923790Y5582157D01*
X4932934Y5573013D01*
X4942077Y5554471D01*
X4942077Y5517642D01*
X4932934Y5499100D01*
X4923790Y5489955D01*
X4905247Y5480557D01*
X4886706Y5480557D01*
X4868163Y5489955D01*
X4840477Y5508244D01*
X4748275Y5600700D01*
X4748275Y5471413D01*
X4914391Y5299710D02*
G01*
X4932934Y5308854D01*
X4942077Y5336539D01*
X4942077Y5355081D01*
X4932934Y5382768D01*
X4905247Y5401310D01*
X4859020Y5410454D01*
X4812791Y5410454D01*
X4775961Y5401310D01*
X4757420Y5382768D01*
X4748275Y5355081D01*
X4748275Y5345684D01*
X4757420Y5317997D01*
X4775961Y5299710D01*
X4803647Y5290312D01*
X4812791Y5290312D01*
X4840477Y5299710D01*
X4859020Y5317997D01*
X4868163Y5345684D01*
X4868163Y5355081D01*
X4859020Y5382768D01*
X4840477Y5401310D01*
X4812791Y5410454D01*
X4914391Y5118607D02*
G01*
X4932934Y5127752D01*
X4942077Y5155437D01*
X4942077Y5173979D01*
X4932934Y5201665D01*
X4905247Y5220207D01*
X4859020Y5229352D01*
X4812791Y5229352D01*
X4775961Y5220207D01*
X4757420Y5201665D01*
X4748275Y5173979D01*
X4748275Y5164836D01*
X4757420Y5137150D01*
X4775961Y5118607D01*
X4803647Y5109210D01*
X4812791Y5109210D01*
X4840477Y5118607D01*
X4859020Y5137150D01*
X4868163Y5164836D01*
X4868163Y5173979D01*
X4859020Y5201665D01*
X4840477Y5220207D01*
X4812791Y5229352D01*
D10*
X8674100Y6185915D02*
G01*
X8674100Y6107937D01*
X8679179Y6092444D01*
X8689593Y6082029D01*
X8705341Y6076950D01*
X8715756Y6076950D01*
X8731250Y6082029D01*
X8741663Y6092444D01*
X8746743Y6107937D01*
X8746743Y6185915D01*
X8786368Y6160007D02*
G01*
X8786368Y6165087D01*
X8791447Y6175502D01*
X8796781Y6180836D01*
X8807195Y6185915D01*
X8827770Y6185915D01*
X8838184Y6180836D01*
X8843518Y6175502D01*
X8848597Y6165087D01*
X8848597Y6154673D01*
X8843518Y6144260D01*
X8833104Y6128765D01*
X8781034Y6076950D01*
X8853931Y6076950D01*
X8318500Y8294115D02*
G01*
X8318500Y8216137D01*
X8323579Y8200644D01*
X8333993Y8190229D01*
X8349741Y8185150D01*
X8360156Y8185150D01*
X8375650Y8190229D01*
X8386063Y8200644D01*
X8391143Y8216137D01*
X8391143Y8294115D01*
X8435847Y8294115D02*
G01*
X8492997Y8294115D01*
X8462009Y8252460D01*
X8477504Y8252460D01*
X8487918Y8247379D01*
X8492997Y8242300D01*
X8498331Y8226552D01*
X8498331Y8216137D01*
X8492997Y8200644D01*
X8482584Y8190229D01*
X8467090Y8185150D01*
X8451595Y8185150D01*
X8435847Y8190229D01*
X8430768Y8195310D01*
X8425434Y8205723D01*
X7266177Y7760208D02*
G01*
X7260843Y7770621D01*
X7250429Y7781036D01*
X7240270Y7786115D01*
X7219441Y7786115D01*
X7209027Y7781036D01*
X7198613Y7770621D01*
X7193279Y7760208D01*
X7188200Y7744460D01*
X7188200Y7718552D01*
X7193279Y7703058D01*
X7198613Y7692644D01*
X7209027Y7682229D01*
X7219441Y7677150D01*
X7240270Y7677150D01*
X7250429Y7682229D01*
X7260843Y7692644D01*
X7266177Y7703058D01*
X7305547Y7760208D02*
G01*
X7305547Y7765287D01*
X7310881Y7775702D01*
X7315961Y7781036D01*
X7326375Y7786115D01*
X7347204Y7786115D01*
X7357618Y7781036D01*
X7362697Y7775702D01*
X7368031Y7765287D01*
X7368031Y7754873D01*
X7362697Y7744460D01*
X7352284Y7728965D01*
X7300468Y7677150D01*
X7373111Y7677150D01*
G36*
X6878828Y4513021D02*
G01*
X6867347Y4400092D01*
X6841845Y4392625D01*
X6817258Y4382516D01*
X6793992Y4369663D01*
X6706006Y4441393D01*
X6645706Y4381093D01*
X6717436Y4293108D01*
X6704634Y4269841D01*
X6694424Y4245254D01*
X6687058Y4219702D01*
X6574129Y4208272D01*
X6574129Y4122928D01*
X6687058Y4111498D01*
X6694424Y4085945D01*
X6704634Y4061358D01*
X6717436Y4038092D01*
X6645706Y3950106D01*
X6706006Y3889806D01*
X6793992Y3961536D01*
X6811314Y3951681D01*
X6829399Y3943299D01*
X6879640Y4064558D01*
X6868058Y4070146D01*
X6857238Y4077106D01*
X6847281Y4085285D01*
X6838340Y4094530D01*
X6830517Y4104843D01*
X6824014Y4115968D01*
X6818884Y4127754D01*
X6815175Y4140047D01*
X6812889Y4152747D01*
X6812127Y4165600D01*
X6812940Y4179062D01*
X6815429Y4192320D01*
X6819544Y4205173D01*
X6825183Y4217466D01*
X6832295Y4228896D01*
X6840728Y4239412D01*
X6850481Y4248759D01*
X6861251Y4256887D01*
X6872935Y4263593D01*
X6885381Y4268876D01*
X6898335Y4272483D01*
X6911695Y4274566D01*
X6925208Y4274921D01*
X6938568Y4273651D01*
X6951776Y4270705D01*
X6964476Y4266184D01*
X6976567Y4260138D01*
X6987743Y4252620D01*
X6997953Y4243832D01*
X7007047Y4233773D01*
X7014768Y4222750D01*
X7021118Y4210812D01*
X7025894Y4198213D01*
X7029145Y4185107D01*
X7030720Y4171746D01*
X7030618Y4158234D01*
X7028891Y4144873D01*
X7025538Y4131767D01*
X7020559Y4119270D01*
X7014108Y4107383D01*
X7006234Y4096461D01*
X6997090Y4086555D01*
X6986778Y4077868D01*
X6975500Y4070502D01*
X6963359Y4064558D01*
X7013600Y3943299D01*
X7031685Y3951681D01*
X7049008Y3961536D01*
X7136993Y3889806D01*
X7197293Y3950106D01*
X7125563Y4038092D01*
X7138365Y4061358D01*
X7148575Y4085945D01*
X7155942Y4111498D01*
X7268870Y4122928D01*
X7268870Y4208272D01*
X7155942Y4219702D01*
X7148575Y4245254D01*
X7138365Y4269841D01*
X7125563Y4293108D01*
X7197293Y4381093D01*
X7136993Y4441393D01*
X7049008Y4369663D01*
X7025741Y4382516D01*
X7001154Y4392625D01*
X6975652Y4400092D01*
X6964172Y4513021D01*
G37*
D12*
X7049008Y3961536D02*
G01*
X7136968Y3889806D01*
X7197293Y3950131D01*
X7125563Y4038092D01*
X7155967Y4111472D02*
G01*
X7268895Y4122953D01*
X7268895Y4208246D01*
X7155967Y4219727D01*
X7125563Y4293107D02*
G01*
X7197293Y4381068D01*
X7136968Y4441393D01*
X7049008Y4369663D01*
X6975627Y4400067D02*
G01*
X6964146Y4512995D01*
X6878853Y4512995D01*
X6867372Y4400067D01*
X6793991Y4369663D02*
G01*
X6706031Y4441393D01*
X6645706Y4381068D01*
X6717436Y4293107D01*
X6687032Y4219727D02*
G01*
X6574104Y4208246D01*
X6574104Y4122953D01*
X6687032Y4111472D01*
X6717436Y4038092D02*
G01*
X6645706Y3950131D01*
X6706031Y3889806D01*
X6793991Y3961536D01*
X6829399Y3943299D02*
G01*
X6879640Y4064558D01*
X6963359Y4064558D02*
G01*
X7013600Y3943299D01*
D13*
X6966694Y5623097D02*
G01*
X6966694Y5883102D01*
D14*
X3073654Y5613145D02*
G01*
X3073654Y5105145D01*
X3327654Y5105145D01*
X3327654Y5613145D01*
X3073654Y5613145D01*
D13*
X2638600Y6152403D02*
G01*
X2898599Y6152403D01*
X1320800Y4152900D02*
G01*
X1701800Y4152900D01*
D15*
X4114800Y3198200D02*
G01*
X5638800Y3198200D01*
D11*
X5638800Y3198200D02*
G01*
X5638800Y3558199D01*
X4114800Y3558199D01*
X4114800Y3198200D01*
X2510205Y7749895D02*
G01*
X1810207Y7749895D01*
X1810207Y8369909D01*
X1810207Y8449894D01*
X2510205Y8449894D01*
X2510205Y8369909D01*
X2510205Y7749895D01*
X1810207Y8369909D02*
G01*
X2510205Y8369909D01*
D13*
X1828800Y3784600D02*
G01*
X1828800Y3592703D01*
X1879600Y3784600D02*
G01*
X1879600Y3589020D01*
X1930400Y3784600D02*
G01*
X1930400Y3586479D01*
X2209800Y3784600D02*
G01*
X2209800Y3581400D01*
X1638300Y3683000D02*
G01*
X1701800Y3683000D01*
X1701800Y3784600D01*
X1727200Y3810000D01*
X1778000Y3810000D01*
X1803400Y3784600D01*
X2235200Y3784600D01*
X2260600Y3810000D01*
X2311400Y3810000D01*
X2336800Y3784600D01*
X2336800Y3581400D01*
X2311400Y3556000D01*
X2260600Y3556000D01*
X2235200Y3581400D01*
X1803400Y3581400D01*
X1778000Y3556000D01*
X1727200Y3556000D01*
X1701800Y3581400D01*
X1701800Y3759200D01*
X2400300Y3683000D02*
G01*
X2336800Y3683000D01*
X1701800Y6096000D02*
G01*
X762000Y6096000D01*
X1701800Y5283200D02*
G01*
X762000Y5283200D01*
X762000Y6096000D02*
G01*
X762000Y5283200D01*
X1701800Y6096000D02*
G01*
X1701800Y5283200D01*
X3644900Y7874000D02*
G01*
X6121400Y7874000D01*
X6121400Y4102100D01*
X3644900Y4102100D01*
X3644900Y7874000D01*
X9613900Y6007100D02*
G01*
X9613900Y3457092D01*
X7853908Y3457092D01*
X7853908Y6007100D01*
X9613900Y6007100D01*
X8341359Y8130539D02*
G01*
X8422640Y8130539D01*
X8600440Y7952739D02*
G01*
X8600440Y7820660D01*
X8422640Y7642860D02*
G01*
X8341359Y7642860D01*
X8163559Y7820660D02*
G01*
X8163559Y7952739D01*
X7289800Y8039097D02*
G01*
X7366000Y8039097D01*
X7289800Y8134350D02*
G01*
X7289800Y7943850D01*
X7188200Y7943850D02*
G01*
X7188200Y8134350D01*
X7188200Y8039102D02*
G01*
X7112000Y8039102D01*
X6794500Y8102600D02*
G01*
X6794500Y8216900D01*
X7683500Y8216900D01*
X7683500Y8102600D01*
X7683500Y7975600D02*
G01*
X7683500Y7861300D01*
X6794500Y7861300D01*
X6794500Y7975600D01*
D12*
G75*
G01*
X7013600Y3943299D02*
G03*
X7049008Y3961536I-92094J222292D01*
G75*
G01*
X7125564Y4038092D02*
G03*
X7155967Y4111473I-204039J127528D01*
G75*
G01*
X7155967Y4219727D02*
G03*
X7125564Y4293108I-234442J-54147D01*
G75*
G01*
X7049008Y4369664D02*
G03*
X6975627Y4400067I-127528J-204039D01*
G75*
G01*
X6867373Y4400067D02*
G03*
X6793992Y4369664I54147J-234442D01*
G75*
G01*
X6717436Y4293108D02*
G03*
X6687033Y4219727I204039J-127528D01*
G75*
G01*
X6687033Y4111473D02*
G03*
X6717436Y4038092I234442J54147D01*
G75*
G01*
X6793992Y3961536D02*
G03*
X6829400Y3943299I127502J204055D01*
G75*
G01*
X6879641Y4064559D02*
G02*
X6812128Y4165600I41859J101045D01*
G75*
G01*
X6812128Y4165600D02*
G02*
X6963359Y4064559I109372J4D01*
D13*
G75*
G01*
X6963867Y5891276D02*
G03*
X6963867Y5614924I-220244J-138176D01*
D11*
G75*
G01*
X2546909Y3073400D02*
G03*
X2546909Y3074010I589991J305D01*
D13*
G75*
G01*
X2906776Y6155233D02*
G03*
X2630424Y6155233I-138176J220244D01*
G75*
G01*
X1320800Y4152900D02*
G02*
X1701800Y4152900I190500J254000D01*
G75*
G01*
X8422640Y8130540D02*
G02*
X8600440Y7952740I0J-177800D01*
G75*
G01*
X8600440Y7820660D02*
G02*
X8422640Y7642860I-177800J0D01*
G75*
G01*
X8341360Y7642860D02*
G02*
X8163560Y7820660I0J177800D01*
G75*
G01*
X8163560Y7952740D02*
G02*
X8341360Y8130540I177800J0D01*
G75*
G01
X1765300Y4406900D02*
G03X1765300Y4406900I-254000J0D01*
M02*
