G04 Layer: TopLayer*
G04 EasyEDA v6.5.15, 2022-10-10 10:29:27*
G04 Gerber Generator version 0.2*
G04 Scale: 100 percent, Rotated: No, Reflected: No *
G04 Dimensions in millimeters *
G04 leading zeros omitted , absolute positions ,4 integer and 5 decimal *
%FSLAX45Y45*%
%MOMM*%

%ADD10C,0.6190*%
%ADD11C,1.2190*%
%ADD12C,1.6510*%
%ADD13C,1.7780*%
%ADD14C,1.1938*%
%ADD15R,2.3000X1.6500*%
%ADD16O,2.2999954X1.6500094*%
%ADD17C,1.8000*%
%ADD18R,1.8000X1.8000*%
%ADD19O,1.7999964X2.999994*%
%ADD20R,1.8000X3.0000*%
%ADD21R,2.0320X2.0320*%
%ADD22C,2.0320*%
%ADD23C,2.0000*%
%ADD24C,3.5052*%
%ADD25C,1.5240*%
%ADD26R,1.3970X1.3970*%
%ADD27C,1.3970*%
%ADD28C,0.6190*%

%LPD*%
D10*
X3461893Y3073400D02*
G01*
X3461893Y6248400D01*
X3860800Y6248400D01*
D11*
X3860800Y4978400D02*
G01*
X4419600Y4978400D01*
X4699000Y4699000D01*
X6870700Y4699000D01*
X6870700Y5753094D01*
D10*
X8382000Y7721600D02*
G01*
X7874000Y7721600D01*
X7734300Y7581900D01*
X7734300Y5499100D01*
X8102904Y5499100D01*
X8107908Y5494096D01*
X8077200Y6502400D02*
G01*
X8648700Y6502400D01*
X8648700Y4229100D01*
X8115909Y4229100D01*
X8107908Y4237101D01*
X3200400Y5486400D02*
G01*
X1574800Y5486400D01*
X1524000Y5435600D01*
D11*
X6870700Y5753100D02*
G01*
X6870700Y8035795D01*
X6874004Y8039100D01*
D12*
G01*
X6616700Y5753100D03*
G01*
X6870700Y5753100D03*
D13*
G01*
X3461893Y3073400D03*
G01*
X2811906Y3073400D03*
D14*
G01*
X3200400Y5232400D03*
G01*
X3200400Y5486400D03*
D15*
G01*
X2768600Y6502400D03*
D16*
G01*
X2768600Y6248400D03*
D17*
G01*
X1511300Y4533900D03*
D18*
G01*
X1511300Y4279900D03*
D19*
G01*
X4241800Y3378200D03*
G01*
X4495800Y3378200D03*
G01*
X4749800Y3378200D03*
G01*
X5003800Y3378200D03*
G01*
X5257800Y3378200D03*
D20*
G01*
X5511800Y3378200D03*
D21*
G01*
X2335199Y8089900D03*
D22*
G01*
X1985187Y8089900D03*
D23*
G01*
X1511300Y3683000D03*
G01*
X2527300Y3683000D03*
G01*
X1524000Y5689600D03*
G01*
X1524000Y5943600D03*
G01*
X1524000Y5435600D03*
G01*
X1016000Y5943600D03*
G01*
X1016000Y5435600D03*
D24*
G01*
X5892800Y7645400D03*
D13*
G01*
X5892800Y4978400D03*
G01*
X5892800Y5232400D03*
G01*
X5892800Y5486400D03*
G01*
X5892800Y5740400D03*
G01*
X5892800Y5994400D03*
G01*
X5892800Y6248400D03*
G01*
X5892800Y6502400D03*
G01*
X5892800Y6756400D03*
G01*
X5892800Y7010400D03*
G01*
X5892800Y7264400D03*
D24*
G01*
X5892800Y4343400D03*
D13*
G01*
X5511800Y4292600D03*
G01*
X4241800Y4292600D03*
G01*
X4495800Y4292600D03*
G01*
X4749800Y4292600D03*
G01*
X5003800Y4292600D03*
G01*
X5257800Y4292600D03*
D24*
G01*
X3860800Y4343400D03*
D13*
G01*
X3860800Y4978400D03*
G01*
X3860800Y7264400D03*
G01*
X3860800Y7010400D03*
G01*
X3860800Y6756400D03*
G01*
X3860800Y6502400D03*
G01*
X3860800Y6248400D03*
G01*
X3860800Y5994400D03*
G01*
X3860800Y5740400D03*
G01*
X3860800Y5486400D03*
G01*
X3860800Y5232400D03*
G01*
X3860800Y4978400D03*
D24*
G01*
X3860800Y7645400D03*
D25*
G01*
X8107908Y5494096D03*
G01*
X8107908Y5240096D03*
G01*
X8107908Y4999101D03*
G01*
X8107908Y4745101D03*
G01*
X8107908Y4491101D03*
G01*
X8107908Y4237101D03*
G01*
X8107908Y3983101D03*
D26*
G01*
X8382000Y7721600D03*
D27*
G01*
X8382000Y8051800D03*
D25*
G01*
X7603997Y8039100D03*
G01*
X6874002Y8039100D03*
D28*
G01*
X8077200Y6502400D03*
M02*
